<?xml version="1.0" encoding="UTF-8" standalone="no"?>
<svg width="134px" height="32px" viewBox="0 0 134 32" version="1.1" xmlns="http://www.w3.org/2000/svg" xmlns:xlink="http://www.w3.org/1999/xlink">
    <!-- Generator: Sketch 39.1 (31720) - http://www.bohemiancoding.com/sketch -->
    <title>Page 1</title>
    <desc>Created with Sketch.</desc>
    <defs></defs>
    <g id="视觉图" stroke="none" stroke-width="1" fill="none" fill-rule="evenodd">
        <g id="见闻首页" transform="translate(-30.000000, -14.000000)">
            <g id="Group-20">
                <g id="Group-9">
                    <g id="Page-1" transform="translate(30.000000, 14.000000)">
                        <path d="M49.7564,14.3876571 C49.7564,14.9665143 50.0069714,15.2025143 50.4975429,15.2025143 L53.2078286,15.2025143 C53.6761143,15.2025143 54.0009714,14.9242286 54.1829714,14.3665143 L55.0798286,11.9430857 L55.1969714,11.9430857 L55.4266857,13.5650857 C55.4524,13.8088 55.4564,14.4665143 55.8795429,14.8165143 C56.2721143,15.1413714 56.4064,15.5482286 56.4064,15.8676571 C56.4064,16.3248 56.1786857,16.6962286 55.7238286,16.9828 C55.2681143,17.2682286 54.5601143,17.4116571 53.5984,17.4116571 L49.1709714,17.4116571 C47.7949714,17.4116571 47.1895429,16.5813714 47.1895429,15.1813714 L47.1895429,13.6156571 C46.1492571,13.9733714 45.2712571,14.2379429 44.1795429,14.4093714 L44.1404,14.2808 C45.3755429,13.5656571 47.1895429,12.1576571 47.1895429,12.1576571 L47.1895429,6.24165714 L50.5752571,7.66222857 L49.7564,8.39137143 L49.7564,10.9139429 C50.0766857,10.6819429 52.0964,9.06708571 52.5329714,8.53794286 L55.8012571,9.90737143 L54.4566857,10.2965143 C52.8572571,11.3259429 51.3941143,12.1793714 49.7564,12.8228 L49.7564,14.3876571 Z M38.1729714,14.8385143 C39.6029714,12.9513714 40.7018286,11.2859429 41.4686857,9.84165714 C42.2352571,8.39794286 42.7358286,7.17537143 42.9701143,6.17537143 L46.1758286,7.51165714 L45.0569714,8.2768 L43.9452571,9.84137143 L43.9452571,17.2610857 C43.9452571,17.9853714 43.4886857,18.2496571 41.9864,18.2496571 L41.3509714,18.2496571 L41.3892571,12.6953714 C40.8104,13.1668 38.9075429,14.5236571 38.2706857,14.9242286 L38.1729714,14.8385143 Z M49.3858286,18.9653714 L48.5669714,19.7590857 L48.5669714,20.6545143 L53.1492571,20.6545143 L53.9329714,19.4870857 L56.6598286,20.6393714 L56.6598286,21.0268 L48.5669714,21.0268 L48.5669714,24.8302286 C48.5669714,25.4299429 47.9658286,25.6450857 47.1241143,25.6450857 L46.0038286,25.6450857 L46.0038286,21.0268 L38.1535429,21.0268 L38.1535429,20.6545143 L46.0038286,20.6545143 L46.0038286,17.5476571 L49.3858286,18.9653714 Z" id="Fill-1" fill="#FFFFFF"></path>
                        <path d="M69.2900286,14.7954571 C72.1988857,16.0974571 74.8677429,19.0428857 74.8677429,20.8206 C74.8677429,22.6574571 73.7414571,22.9220286 73.1511714,22.9220286 C72.5623143,22.9220286 72.0966,22.5566 72.0594571,22.0643143 C71.7374571,17.7763143 70.2974571,16.3366 69.2314571,14.8594571 L69.2900286,14.7954571 Z M69.0757429,13.2586 L68.3731714,13.9448857 L68.3731714,23.1366 C68.3731714,24.1457429 67.7457429,25.0714571 66.5011714,25.4734571 C66.0357429,25.6237429 65.4617429,25.7171714 64.7854571,25.7737429 C64.7463143,25.3448857 64.6763143,24.9868857 64.6100286,24.6908857 C64.4446,23.9540286 63.4946,23.1357429 62.4451714,23.1357429 L62.4451714,22.9868857 L64.9026,22.9868857 C65.3797429,22.9868857 65.7994571,22.6851714 65.7994571,21.9146 L65.7994571,11.8791714 L69.0757429,13.2586 Z M58.2143143,16.7254571 C59.2537429,14.8383143 60.0823143,12.9974571 60.6997429,11.2034571 C61.3174571,9.40945714 61.7368857,7.75488571 61.9583143,6.23917143 L65.7008857,7.81717143 L64.4920286,8.63202857 C64.3366,9.00431429 63.8831714,9.80888571 63.6368857,10.2506 L71.4748857,10.2506 L72.0271714,8.86088571 L75.6408857,10.3780286 C75.6408857,10.3780286 75.4428857,10.5094571 74.4397429,11.0217429 C73.5754571,11.9083143 72.4768857,13.3274571 71.0448857,14.4094571 L70.9480286,14.3448857 L71.8254571,10.6160286 L63.4774571,10.6160286 C62.7114571,11.9440286 61.9020286,13.1188857 61.0511714,14.1408857 C60.1994571,15.1637429 59.2866,16.0528857 58.3111714,16.8111714 L58.2143143,16.7254571 Z M58.1940286,23.9514571 C58.1940286,23.9514571 60.9106,19.3757429 61.9774571,14.8166 L65.3188857,16.2177429 L64.3048857,16.7971714 C61.1103143,21.9068857 58.9674571,23.4797429 58.2920286,24.0371714 L58.1940286,23.9514571 Z" id="Fill-3" fill="#FFFFFF"></path>
                        <path d="M89.7983143,8.95557143 L92.2751714,8.95557143 L92.8954571,8.04871429 L95.0831714,8.98157143 L94.6340286,9.321 L89.7983143,9.321 L89.7983143,8.95557143 Z M89.7983143,13.9081429 L89.7983143,13.5427143 L92.4891714,13.5427143 L93.1688857,12.549 L95.5508857,13.5484286 L95.0631714,13.9081429 L93.4251714,13.9081429 L93.4251714,23.351 C93.4251714,24.6727143 92.9517429,25.2098571 91.9963143,25.5532857 C91.6131714,25.691 91.1111714,25.7664286 90.5394571,25.8384286 C90.5000286,25.509 90.4474571,25.2244286 90.3926,24.9807143 C90.1448857,23.8795714 89.1014571,23.5564286 88.6006,23.5338571 L88.6006,23.3755714 L90.4754571,23.3755714 C91.1540286,23.3755714 91.2166,22.9347143 91.2166,22.5178571 L91.2166,13.9327143 L89.7983143,13.9081429 Z M87.7206,7.779 L86.9126,8.53271429 L86.9126,10.3998571 L87.2043143,10.3998571 L87.7857429,9.62728571 L89.8954571,10.5035714 L89.4468857,10.7655714 L86.9126,10.7655714 L86.9126,14.2841429 L87.3408857,14.2841429 L87.9283143,13.4972857 L90.0708857,14.3852857 L89.6420286,14.6472857 L82.0366,14.6472857 L82.0366,14.2841429 L84.7117429,14.2841429 L84.7117429,10.7655714 L82.3100286,10.7655714 L82.3100286,10.3998571 L84.7117429,10.3998571 L84.7117429,6.53928571 L87.7206,7.779 Z M87.5180286,16.1632857 L86.9126,16.9698571 L86.9126,18.0207143 L87.5748857,18.0207143 L88.2517429,17.3032857 L90.2660286,18.0944286 L89.8174571,18.3858571 L86.9126,18.3858571 L86.9126,21.3352857 C87.4577429,21.2495714 88.0071714,21.1604286 88.5600286,21.0675714 C89.1126,20.9744286 89.6620286,20.871 90.2074571,20.7567143 L90.2466,20.8855714 C89.1934571,21.5287143 88.0868857,22.1275714 86.9126,22.6647143 C85.2211714,23.4384286 82.6486,24.3347143 82.6486,24.3347143 L81.8031714,21.893 L84.7117429,21.6355714 L84.7117429,18.3858571 L82.3294571,18.3858571 L82.3294571,18.0207143 L84.7117429,18.0207143 L84.7868857,15.0098571 L87.5180286,16.1632857 Z M77.2403143,12.6292857 C78.0554571,11.4072857 80.2086,7.047 80.2991714,6.76071429 L83.0897429,7.93357143 L82.2323143,8.34071429 C80.6131714,10.4307143 77.7100286,12.4975714 77.3180286,12.737 L77.2403143,12.6292857 Z M77.1423143,18.2264286 C77.4937429,17.6398571 79.9977429,13.0452857 80.6974571,11.0895714 L83.5306,12.2764286 L82.6806,12.715 C82.4200286,13.1155714 82.1506,13.4975714 81.8714571,13.8624286 C81.5914571,14.2267143 81.2891714,14.5947143 80.9643143,14.967 L81.7791714,15.3215714 L81.1400286,15.9315714 L81.1400286,25.0447143 C81.1400286,25.2452857 81.1071714,25.399 81.0428857,25.5058571 C80.9771714,25.6135714 80.8534571,25.6878571 80.6723143,25.7307143 C80.3731714,25.803 80.0580286,25.849 79.7257429,25.8707143 C79.3946,25.8918571 78.9340286,25.9361429 78.9340286,25.9361429 L78.9340286,16.9515714 C78.9340286,16.9515714 77.5451714,18.0832857 77.2203143,18.3121429 L77.1423143,18.2264286 Z" id="Fill-5" fill="#FFFFFF"></path>
                        <path d="M107.716629,21.8956286 C107.716629,22.4582 107.9172,22.8790571 108.535486,22.8790571 L110.591486,22.8790571 C112.352914,22.8790571 112.6432,21.9190571 112.747486,21.6333429 L113.535771,18.6156286 L113.770057,18.6156286 L113.8872,20.8636286 C113.8952,22.0767714 114.238629,22.3362 114.316343,22.4076286 C114.4592,22.5507714 114.686914,22.7704857 114.686914,23.3082 C114.686914,24.6713429 113.180914,25.0876286 111.878914,25.0876286 L107.6472,25.0876286 C106.414629,25.0876286 105.506057,24.1353429 105.506057,22.7076286 L105.506057,18.2904857 C105.506057,18.2904857 103.342057,24.2696286 96.3754857,25.7956286 L96.3177714,25.6879143 C98.7480571,24.2013429 100.581486,22.5467714 101.816914,20.7244857 C103.0512,18.9013429 103.709771,16.8813429 103.844343,14.6667714 C103.958629,12.7907714 103.818057,10.3659143 103.806057,10.0227714 L107.159486,11.4202 L106.301486,12.2559143 C106.262629,13.0322 106.158629,15.4793429 105.893771,16.8459143 L108.548057,17.9573429 L107.716629,18.7650571 L107.716629,21.8956286 Z" id="Fill-7" fill="#FFFFFF"></path>
                        <path d="M111.558229,17.8186 C111.558229,18.2471714 111.2508,18.5466 110.923657,18.6334571 C110.613943,18.7154571 110.276229,18.7660286 109.919371,18.8154571 C109.561657,18.8657429 109.2528,18.9054571 108.993086,18.9337429 L108.993086,8.3626 L101.758229,8.3626 L101.758229,18.3523143 C101.758229,18.7003143 101.542229,18.9466 101.283657,19.0340286 C101.022514,19.1226 100.461657,19.1908857 99.6156571,19.1908857 L99.2065143,19.1908857 L99.2065143,6.69602857 L102.295371,7.99517143 L108.4468,7.99517143 L109.142229,6.39031429 L112.3528,7.75117143 L111.558229,8.85517143 L111.558229,17.8186 Z" id="Fill-9" fill="#FFFFFF"></path>
                        <path d="M16,0 C7.16342857,0 0,7.16342857 0,16 C0,24.8365714 7.16342857,32 16,32 C24.8365714,32 32,24.8365714 32,16 C32,7.16342857 24.8365714,0 16,0" id="Fill-14" fill="#1378F0"></path>
                        <path d="M14.5915429,20.3001143 L11.7769714,13.3446857 C11.7769714,13.3446857 11.6898286,13.0821143 11.6898286,12.9046857 C11.6898286,12.3004 11.9026857,11.8666857 12.4549714,11.4972571 C12.4569714,11.4961143 12.4612571,11.4941143 12.4612571,11.4941143 L12.4609714,11.4752571 L5.67954286,11.4752571 L5.67954286,11.5109714 C5.67954286,11.5109714 5.71354286,11.5201143 5.7304,11.5249714 C6.60668571,11.7738286 7.32125714,12.4035429 7.68925714,13.2226857 L13.0095429,25.9001143 L13.5061143,25.9001143 L16.4526857,18.6444 L15.8781143,17.0981143 L14.5915429,20.3001143 Z" id="Fill-16" fill="#FFFFFF"></path>
                        <path d="M22.0809714,9.49005714 L22.0809714,9.51348571 L22.0901143,9.51348571 C22.9232571,9.5272 23.5935429,10.2017714 23.5935429,11.0389143 C23.5935429,11.2243429 23.5606857,11.4023429 23.5004,11.5669143 C23.5001143,11.5674857 23.5001143,11.5677714 23.4998286,11.5683429 L20.9649714,18.3503429 L19.2404,13.9577714 L17.1309714,18.6803429 L19.3932571,24.3234857 L19.8424,24.3234857 L24.8829714,11.0432 C24.8829714,11.0432 24.9246857,10.9360571 24.9341143,10.9129143 C25.2626857,10.1089143 25.7506857,9.61834286 26.2812571,9.51977143 C26.2881143,9.51834286 26.3081143,9.51577143 26.3081143,9.51577143 L26.3081143,9.49005714 L22.0809714,9.49005714 Z" id="Fill-18" fill="#FFFFFF"></path>
                        <path d="M21.4108571,7.34611429 C21.6762857,6.77525714 21.9905714,6.31468571 22.6017143,6.18382857 C22.6017143,6.17925714 22.6022857,6.16582857 22.6022857,6.16582857 L18.9802857,6.16582857 L18.9802857,6.18011429 C19.5528571,6.26954286 19.956,6.66982857 20.0942857,7.0104 C20.1117143,7.0804 20.1708571,7.27582857 20.048,7.5884 L18.35,11.7301143 L17.778,10.2846857 C17.7222857,10.1238286 17.5811429,9.59497143 17.5811429,9.37125714 C17.5811429,7.81525714 19.0522857,7.7684 19.2642857,7.7684 C19.2731429,7.7684 19.2777143,7.76868571 19.2777143,7.76868571 L19.2777143,7.7304 L11.5134286,7.7304 L11.5134286,7.7544 C12.746,8.09668571 13.3334286,9.14182857 13.5322857,9.71725714 L16.826,17.9198286 L21.2371429,7.74697143 C21.2371429,7.74697143 21.3754286,7.41897143 21.4108571,7.34611429" id="Fill-20" fill="#FFFFFF"></path>
                        <path d="M126.153771,17.6995429 L123.5992,17.6995429 L123.5992,20.4092571 L126.153771,20.0818286 L126.153771,17.6995429 Z M123.5992,17.3341143 L126.153771,17.3341143 L126.153771,14.9086857 L123.591486,14.9086857 L123.5992,17.3341143 Z M123.5992,14.5421143 L126.153771,14.5421143 L126.153771,12.1066857 L123.5992,12.1066857 L123.5992,14.5421143 Z M120.070057,11.7412571 L127.284629,11.7412571 L127.778629,10.9278286 L130.165486,11.9281143 L130.025771,12.1066857 L128.358914,12.1278286 L128.358914,19.8261143 L128.513486,19.7824 L128.865771,18.9281143 L130.606057,19.6569714 L130.424914,19.9098286 L128.358914,20.1924 L128.358914,22.8581143 L129.9372,22.8581143 C130.656914,22.8581143 130.911771,22.4249714 130.911771,21.8289714 L130.911771,8.68182857 L124.2232,8.68182857 L124.2232,8.3164 L130.521771,8.3164 L131.131486,6.9604 L133.9732,8.14811429 L133.485771,9.17725714 L133.485771,22.4932571 C133.485771,23.6532571 133.290057,24.6284 131.740914,25.2589714 C131.318629,25.4309714 130.788057,25.5738286 130.1512,25.6878286 C130.112914,25.3309714 130.0492,25.0215429 129.986057,24.7558286 C129.625486,23.2392571 128.358914,23.0938286 128.358914,23.0938286 L128.358914,23.7789714 C128.358914,24.3064 128.0312,24.7132571 126.746914,24.7132571 L126.153771,24.7132571 L126.153771,20.4529714 L119.816629,21.2466857 L119.816629,20.9089714 L121.395771,20.7081143 L121.395771,12.1066857 L120.070057,12.1066857 L120.070057,11.7412571 Z M119.484629,6.23925714 C120.1872,6.28211429 121.199486,6.46211429 122.202343,6.89354286 C122.922914,7.20354286 123.476057,7.83211429 123.476057,8.54468571 C123.476057,9.4904 122.900914,10.1615429 122.050057,10.1615429 C121.249486,10.1615429 120.662914,9.81154286 120.662914,8.93868571 C120.662914,7.82954286 119.770914,6.8184 119.446057,6.30382857 L119.484629,6.23925714 Z M120.334057,10.8841143 L119.611486,11.5772571 L119.611486,24.7015429 C119.611486,25.1389714 119.224629,25.4232571 119.055486,25.4524 C118.730629,25.5235429 118.3792,25.5738286 118.0032,25.6021143 C117.6252,25.6312571 117.287771,25.6449714 116.988343,25.6449714 C117.0012,25.1732571 117.014914,24.6481143 117.027771,24.0695429 C117.040629,23.4901143 117.040629,9.79868571 117.027771,9.49868571 L120.334057,10.8841143 Z" id="Fill-11" fill="#FFFFFF"></path>
                    </g>
                </g>
            </g>
        </g>
    </g>
</svg>