<?xml version="1.0" encoding="UTF-8" standalone="no"?>
<svg width="18px" height="18px" viewBox="0 0 18 18" version="1.1" xmlns="http://www.w3.org/2000/svg" xmlns:xlink="http://www.w3.org/1999/xlink">
    <!-- Generator: Sketch 39.1 (31720) - http://www.bohemiancoding.com/sketch -->
    <title>iconfont-sousuo copy</title>
    <desc>Created with Sketch.</desc>
    <defs></defs>
    <g id="视觉图" stroke="none" stroke-width="1" fill="none" fill-rule="evenodd">
        <g id="组件" transform="translate(-1256.000000, -857.000000)" fill="currentColor">
            <g id="Group-5" transform="translate(1256.000000, 846.000000)">
                <g id="Group-14-Copy-3" transform="translate(0.000000, 5.000000)">
                    <path d="M17.6435507,21.9011899 L13.3370882,17.5999792 C13.310654,17.5735553 13.2808579,17.5544397 13.2532371,17.5314615 C15.2922939,14.6802721 15.0386533,10.6970258 12.4759231,8.13801343 C9.62175783,5.28732886 4.99470132,5.28732886 2.14062395,8.13801343 C-0.713541317,10.9885883 -0.713541317,15.610024 2.14062395,18.4606866 C4.70328822,21.0203135 8.69139809,21.2736447 11.5460688,19.2370527 C11.5691629,19.2646617 11.5883019,19.2949263 11.6147361,19.3208234 L15.9211986,23.6220342 C16.3970796,24.0973129 17.1681971,24.0973129 17.6435507,23.6220342 C18.1188164,23.1461629 18.1188164,22.3759639 17.6435507,21.9011899 L17.6435507,21.9011899 Z M3.28918096,17.3128719 C1.0695896,15.0959873 1.0695896,11.5015276 3.28918096,9.28405048 C5.50883825,7.06716593 9.10768683,7.06716593 11.3278056,9.28405048 C13.5474628,11.5010009 13.5474628,15.0954606 11.3278056,17.3128719 C9.10768683,19.530349 5.50883825,19.530349 3.28918096,17.3128719 L3.28918096,17.3128719 Z" id="iconfont-sousuo-copy"></path>
                </g>
            </g>
        </g>
    </g>
</svg>
