<?xml version="1.0" encoding="UTF-8" standalone="no"?>
<svg width="20px" height="20px" viewBox="0 0 20 20" version="1.1" xmlns="http://www.w3.org/2000/svg" xmlns:xlink="http://www.w3.org/1999/xlink">
    <!-- Generator: Sketch 40 (33762) - http://www.bohemiancoding.com/sketch -->
    <title>iconfont-sousuo copy</title>
    <desc>Created with Sketch.</desc>
    <defs></defs>
    <g id="视觉图" stroke="none" stroke-width="1" fill="none" fill-rule="evenodd">
        <g id="组件" transform="translate(-1336.000000, -1170.000000)" fill="#AAAAAA">
            <path d="M1355.60794,1187.67159 L1350.82201,1182.89149 C1350.79263,1182.86213 1350.75952,1182.84088 1350.72882,1182.81535 C1352.9949,1179.64671 1352.71302,1175.21998 1349.86496,1172.37605 C1346.69302,1169.20798 1341.5508,1169.20798 1338.37896,1172.37605 C1335.20701,1175.54401 1335.20701,1180.67998 1338.37896,1183.84803 C1341.22694,1186.69264 1345.65908,1186.97418 1348.83158,1184.71084 C1348.85725,1184.74152 1348.87852,1184.77515 1348.90789,1184.80393 L1353.69383,1189.58403 C1354.22269,1190.11223 1355.07966,1190.11223 1355.60794,1189.58403 C1356.13612,1189.05518 1356.13612,1188.19923 1355.60794,1187.67159 L1355.60794,1187.67159 Z M1339.65539,1182.57242 C1337.18868,1180.10871 1337.18868,1176.11405 1339.65539,1173.64969 C1342.12218,1171.18598 1346.12172,1171.18598 1348.58902,1173.64969 C1351.05581,1176.11347 1351.05581,1180.10813 1348.58902,1182.57242 C1346.12172,1185.03679 1342.12218,1185.03679 1339.65539,1182.57242 L1339.65539,1182.57242 Z" id="iconfont-sousuo-copy"></path>
        </g>
    </g>
</svg>