<?xml version="1.0" encoding="UTF-8" standalone="no"?>
<svg width="12px" height="12px" viewBox="0 0 12 12" version="1.1" xmlns="http://www.w3.org/2000/svg" xmlns:xlink="http://www.w3.org/1999/xlink">
    <!-- Generator: Sketch 39.1 (31720) - http://www.bohemiancoding.com/sketch -->
    <title>Group 8</title>
    <desc>Created with Sketch.</desc>
    <defs></defs>
    <g id="视觉图" stroke="none" stroke-width="1" fill="none" fill-rule="evenodd">
        <g id="preview_mode_资讯" transform="translate(-248.000000, -269.000000)" fill="#AAAAAA">
            <g id="Group-4" transform="translate(73.000000, 54.000000)">
                <g id="Group-9" transform="translate(106.000000, 214.000000)">
                    <g id="Group-27">
                        <g id="Group-20">
                            <g id="Group-8" transform="translate(69.000000, 1.000000)">
                                <path d="M6,0 C2.6863125,0 0,2.6863125 0,6 C0,9.3136875 2.6863125,12 6,12 C9.3136875,12 12,9.3136875 12,6 C12,2.6863125 9.3136875,0 6,0 L6,0 Z M6,11.25 C3.1051875,11.25 0.75,8.8948125 0.75,6 C0.75,3.1051875 3.1051875,0.75 6,0.75 C8.8948125,0.75 11.25,3.1051875 11.25,6 C11.25,8.8948125 8.8948125,11.25 6,11.25 L6,11.25 Z" id="Shape"></path>
                                <path d="M8.89125,7.1895 L6.2330625,5.98125 L6.2330625,2.6469375 C6.2330625,2.43975 6.0650625,2.2719375 5.8580625,2.2719375 C5.6510625,2.2719375 5.4830625,2.43975 5.4830625,2.6469375 L5.4830625,6.2225625 C5.4830625,6.36975 5.5689375,6.5030625 5.703,6.5638125 L8.581125,7.872 C8.631375,7.8950625 8.6840625,7.90575 8.736,7.90575 C8.8785,7.90575 9.014625,7.824 9.0774375,7.686 C9.163125,7.497375 9.079875,7.2751875 8.89125,7.1895 L8.89125,7.1895 Z" id="Shape"></path>
                            </g>
                        </g>
                    </g>
                </g>
            </g>
        </g>
    </g>
</svg>